<svg width="21" height="18" viewBox="0 0 21 18" fill="none" xmlns="http://www.w3.org/2000/svg">
<g clip-path="url(#clip0_2290_1143)">
<path d="M4 12H2C1.73478 12 1.48043 11.8947 1.29289 11.7071C1.10536 11.5196 1 11.2652 1 11V7.00003C1 6.73482 1.10536 6.48046 1.29289 6.29293C1.48043 6.10539 1.73478 6.00003 2 6.00003H4L7.5 1.50003C7.5874 1.33026 7.73265 1.19736 7.90949 1.12533C8.08633 1.0533 8.2831 1.04689 8.46425 1.10728C8.6454 1.16766 8.79898 1.29085 8.89723 1.45457C8.99549 1.6183 9.03194 1.81178 9 2.00003V16C9.03194 16.1883 8.99549 16.3818 8.89723 16.5455C8.79898 16.7092 8.6454 16.8324 8.46425 16.8928C8.2831 16.9532 8.08633 16.9468 7.90949 16.8747C7.73265 16.8027 7.5874 16.6698 7.5 16.5L4 12Z" stroke="#17161D" stroke-width="2" stroke-linecap="round" stroke-linejoin="round"/>
<line x1="14.1281" y1="5.11066" x2="20.715" y2="11.6976" stroke="#17161D" stroke-width="1.55256" stroke-linecap="round"/>
<line x1="13.751" y1="11.7205" x2="20.3379" y2="5.13353" stroke="#17161D" stroke-width="1.55256" stroke-linecap="round"/>
</g>
<defs>
<clipPath id="clip0_2290_1143">
<rect width="21" height="18" fill="white"/>
</clipPath>
</defs>
</svg>
